<?xml version="1.0" standalone="no"?>
<!DOCTYPE svg PUBLIC "-//W3C//DTD SVG 20010904//EN"
 "http://www.w3.org/TR/2001/REC-SVG-20010904/DTD/svg10.dtd">
<svg version="1.0" xmlns="http://www.w3.org/2000/svg"
 width="387.000000pt" height="387.000000pt" viewBox="0 0 387.000000 387.000000"
 preserveAspectRatio="xMidYMid meet">
<metadata>
Created by potrace 1.11, written by Peter Selinger 2001-2013
</metadata>
<g transform="translate(0.000000,387.000000) scale(0.100000,-0.100000)"
fill="#000000" stroke="none">
<path d="M2290 3793 c-45 -14 -63 -32 -91 -88 -52 -105 -46 -129 94 -411 41
-82 84 -178 95 -214 27 -84 94 -330 121 -443 39 -163 29 -175 -92 -119 -72 34
-86 44 -96 72 -14 41 -15 38 11 42 29 4 50 45 36 71 -5 10 -23 26 -38 35 -33
19 -43 69 -23 112 27 56 20 156 -13 190 -14 13 -17 13 -28 -2 -7 -10 -16 -18
-19 -18 -3 0 -17 26 -32 57 -14 31 -36 71 -49 88 -12 16 -26 48 -30 70 -4 22
-9 53 -12 70 -9 44 -52 154 -80 202 -76 131 -266 253 -392 253 -65 0 -91 -19
-86 -65 4 -46 66 -173 107 -219 9 -11 17 -27 17 -37 0 -9 7 -19 15 -23 8 -3
20 -18 27 -33 6 -15 20 -38 31 -49 10 -12 19 -28 21 -35 1 -8 5 -20 9 -26 5
-7 7 -13 5 -14 -52 -13 -67 -7 -126 43 -74 65 -166 97 -220 77 -20 -8 -21 -10
-8 -47 8 -21 24 -58 35 -80 18 -35 19 -42 6 -42 -8 0 -15 -4 -15 -9 0 -5 -11
-11 -25 -13 -29 -6 -41 8 -89 104 -30 59 -60 98 -76 98 -20 0 -64 -73 -77
-130 -4 -18 -3 -95 1 -132 5 -33 -16 -63 -56 -84 l-31 -16 5 27 c3 14 0 32 -6
38 -6 7 -23 51 -39 98 -15 48 -46 131 -68 185 -22 55 -42 107 -44 118 -2 10
-11 26 -20 36 -8 9 -15 24 -15 33 0 9 -10 27 -23 40 -12 14 -37 41 -55 61 -39
44 -65 45 -101 7 -29 -31 -42 -75 -66 -219 -10 -64 -8 -199 5 -270 27 -150
116 -329 224 -450 11 -13 21 -33 23 -45 1 -12 5 -41 9 -64 6 -39 4 -43 -17
-52 -13 -4 -47 -12 -75 -15 l-51 -7 -22 53 c-39 90 -98 233 -99 241 -1 4 -2 8
-3 10 -1 3 0 1 -33 162 -15 72 -39 167 -53 213 -28 89 -59 125 -137 157 -73
31 -151 7 -173 -51 -6 -16 -40 -103 -76 -194 -133 -336 -181 -572 -180 -870 0
-97 9 -255 17 -300 2 -14 8 -52 11 -85 4 -33 10 -71 12 -85 2 -14 5 -66 6
-117 2 -66 7 -96 18 -110 9 -10 49 -101 89 -203 116 -293 188 -444 292 -610
62 -99 181 -264 234 -323 16 -18 58 -65 93 -105 35 -40 66 -70 69 -68 2 3 -18
38 -46 79 -47 70 -73 119 -101 193 -15 39 -18 131 -4 145 17 17 61 -8 90 -51
59 -87 74 -99 41 -33 -22 45 -30 75 -30 113 1 63 19 119 45 143 19 16 22 16
38 1 10 -9 26 -37 35 -63 10 -25 22 -50 27 -56 7 -7 7 -3 3 10 -43 121 -39
225 14 308 37 59 62 61 89 10 l20 -38 1 52 c0 48 18 112 57 203 42 99 88 162
152 209 29 20 32 21 28 5 -3 -11 -8 -37 -11 -59 -22 -150 -25 -205 -14 -255
19 -95 22 -138 19 -355 -1 -87 5 -209 14 -250 2 -11 7 -31 10 -45 3 -14 7 -36
10 -50 3 -14 13 -62 23 -106 l18 -81 -33 -37 c-18 -19 -33 -43 -33 -52 0 -14
7 -15 48 -9 26 4 52 7 57 7 6 -1 31 -3 57 -5 32 -2 55 -10 71 -25 24 -22 25
-22 43 -5 13 14 32 18 79 17 34 -1 71 -6 81 -12 23 -12 33 -7 57 31 10 15 22
27 27 27 6 0 28 -16 50 -36 50 -45 73 -41 68 13 l-3 38 50 3 50 3 -31 -28
c-34 -31 -56 -74 -45 -91 4 -7 20 -5 50 9 24 10 52 19 62 19 20 0 26 -15 9
-25 -11 -7 -14 -48 -4 -57 3 -4 31 8 62 26 53 29 61 31 117 24 47 -6 65 -13
80 -33 25 -30 36 -31 60 -5 10 11 28 20 39 20 34 1 98 35 149 80 47 41 48 42
73 25 15 -9 33 -14 42 -10 9 4 34 9 55 12 30 4 44 0 62 -17 25 -24 55 -21 55
5 0 12 13 15 66 15 60 0 70 -3 101 -31 19 -16 37 -28 40 -25 9 9 -7 75 -23 90
-50 51 -51 112 -4 256 17 52 35 115 40 140 16 76 17 82 45 178 34 117 29 198
-14 243 -25 26 -87 51 -125 51 -36 0 -103 -18 -122 -33 -7 -6 -10 25 -10 104
0 125 -8 240 -19 257 -10 16 60 -15 117 -51 78 -51 180 -204 213 -321 9 -32
21 -58 27 -58 5 0 8 6 5 14 -10 24 12 86 30 86 22 0 76 -58 104 -111 19 -36
23 -60 23 -136 1 -51 4 -93 9 -93 4 0 7 12 8 28 0 15 2 34 4 42 2 8 6 26 9 39
9 39 23 48 53 31 60 -34 95 -166 68 -256 -7 -24 -9 -42 -4 -39 4 3 16 30 25
60 10 31 30 70 45 87 22 27 29 31 42 20 18 -15 37 -86 32 -127 -9 -91 -19
-144 -32 -175 -22 -50 -52 -144 -49 -148 5 -5 59 93 114 208 50 105 98 235
107 294 8 47 27 100 38 107 6 4 6 12 1 20 -5 8 -10 115 -10 239 -1 205 -8 358
-19 450 -3 19 -7 55 -10 80 -4 25 -15 86 -26 135 -11 50 -22 99 -24 110 -7 31
-70 251 -100 345 -41 132 -55 183 -55 212 0 17 -14 42 -40 69 -33 36 -110 150
-110 164 0 9 -167 256 -213 314 -104 134 -225 257 -357 362 -49 40 -218 159
-225 159 -2 0 -28 14 -57 32 -29 17 -82 47 -118 66 -36 20 -85 48 -109 64 -43
27 -68 32 -101 21z m-1261 -1494 c-38 -78 -33 -72 -58 -64 -20 6 -53 53 -66
94 -6 20 -4 22 27 18 18 -2 53 2 78 8 25 7 46 11 48 10 2 -2 -11 -32 -29 -66z"/>
</g>
</svg>
